<svg width="44" height="44" viewBox="0 0 44 44" fill="none" xmlns="http://www.w3.org/2000/svg">
<path d="M34.0714 12H9.92857C9.41496 12 9 12.4062 9 12.9091V31.0909C9 31.5938 9.41496 32 9.92857 32H34.0714C34.585 32 35 31.5938 35 31.0909V12.9091C35 12.4062 34.585 12 34.0714 12ZM32.9107 15.1477V29.9545H11.0893V15.1477L10.2884 14.5369L11.4288 13.1023L12.6708 14.0483H31.3321L32.5741 13.1023L33.7145 14.5369L32.9107 15.1477ZM31.3321 14.0455L22 21.1477L12.6679 14.0455L11.4259 13.0994L10.2855 14.5341L11.0864 15.1449L20.9989 22.6903C21.284 22.9072 21.6347 23.0249 21.9956 23.0249C22.3566 23.0249 22.7073 22.9072 22.9924 22.6903L32.9107 15.1477L33.7116 14.5369L32.5712 13.1023L31.3321 14.0455Z" fill="black"/>
</svg>
